<?xml version="1.0" standalone="no"?>
<!DOCTYPE svg PUBLIC "-//W3C//DTD SVG 20010904//EN"
 "http://www.w3.org/TR/2001/REC-SVG-20010904/DTD/svg10.dtd">
<svg version="1.0" xmlns="http://www.w3.org/2000/svg"
 width="1080.000000pt" height="1080.000000pt" viewBox="0 0 1080.000000 1080.000000"
 preserveAspectRatio="xMidYMid meet">

<g transform="translate(0.000000,1080.000000) scale(0.100000,-0.100000)"
fill="#000000" stroke="none">
<path d="M5544 9478 c-3 -4 -9 -45 -14 -90 -24 -233 -40 -382 -49 -463 -6 -49
-11 -118 -11 -152 l0 -63 53 -2 c60 -1 89 1 95 7 3 3 8 31 11 63 5 52 10 61
49 97 l44 39 19 -24 c10 -14 41 -61 68 -105 27 -44 57 -87 67 -96 20 -17 180
-46 191 -35 3 3 -1 14 -10 24 -10 10 -17 22 -17 25 0 7 -77 129 -140 223 -49
73 -48 74 32 141 40 33 84 72 98 85 14 14 36 31 49 38 33 17 15 26 -78 39
l-74 10 -61 -46 c-34 -26 -81 -63 -106 -83 -25 -20 -58 -45 -73 -55 l-28 -18
6 124 c4 68 10 138 15 154 5 17 11 60 14 97 l6 66 -76 4 c-42 2 -78 0 -80 -4z"/>
<path d="M5029 9249 c-72 -25 -132 -77 -167 -143 -21 -41 -26 -65 -27 -121 0
-104 32 -173 110 -235 82 -66 258 -80 345 -29 8 5 25 13 37 18 28 13 73 73 73
98 0 14 -15 25 -57 43 l-57 23 -15 -22 c-21 -32 -85 -71 -116 -71 -35 0 -99
34 -124 66 -65 83 -40 209 50 250 60 26 98 23 152 -14 l47 -31 45 27 c50 30
59 45 45 72 -42 78 -215 113 -341 69z"/>
<path d="M4412 9149 c-84 -14 -222 -94 -222 -130 0 -23 66 -80 85 -73 8 4 15
9 15 13 0 12 104 59 146 66 56 9 108 -13 122 -52 9 -29 8 -31 -27 -45 -20 -9
-54 -19 -77 -22 -61 -9 -130 -42 -169 -83 -32 -33 -35 -41 -35 -98 0 -50 5
-67 25 -95 37 -50 60 -59 149 -60 94 0 150 22 195 77 27 33 29 33 34 12 5 -20
11 -21 67 -17 94 7 93 -2 36 228 -50 200 -92 260 -197 280 -59 11 -73 11 -147
-1z m189 -332 c4 -15 2 -43 -4 -63 -9 -31 -20 -41 -63 -61 -35 -16 -61 -22
-78 -17 -27 6 -66 47 -66 69 0 27 41 63 87 76 119 33 114 33 124 -4z"/>
<path d="M6361 9129 c-145 -27 -241 -145 -241 -297 0 -37 7 -76 20 -104 23
-53 100 -128 150 -147 19 -7 49 -20 67 -27 43 -19 176 -18 213 1 35 18 36 20
10 72 l-20 41 -77 -1 c-84 -1 -136 18 -180 65 -24 26 -42 98 -24 98 17 0 102
-21 141 -35 76 -27 176 -55 197 -55 12 0 25 -4 28 -10 11 -18 44 -11 56 12 20
38 16 167 -7 218 -52 113 -208 192 -333 169z m139 -139 c45 -23 85 -88 75
-122 -8 -22 -21 -22 -112 6 -29 9 -76 22 -104 30 -28 8 -53 16 -55 18 -11 12
13 48 44 66 47 27 102 28 152 2z"/>
<path d="M3741 9084 c-50 -15 -308 -139 -331 -159 -8 -7 -27 -15 -42 -19 -16
-3 -28 -10 -28 -15 0 -5 38 -85 84 -178 46 -92 118 -239 161 -326 42 -86 79
-156 83 -154 4 2 45 23 92 46 47 23 92 45 100 50 8 4 64 32 124 62 179 88 234
163 206 279 -21 89 -83 140 -170 140 -43 0 -47 5 -25 34 22 28 20 134 -3 167
-54 82 -142 107 -251 73z m99 -154 c30 -30 26 -83 -7 -119 -27 -30 -179 -111
-206 -111 -11 0 -87 135 -87 155 0 4 140 72 180 88 36 14 100 7 120 -13z m181
-282 c6 -16 8 -43 5 -63 -7 -35 -22 -47 -126 -104 -22 -12 -123 -58 -135 -61
-9 -2 -38 38 -50 70 -3 8 -13 28 -21 43 -22 45 -18 65 15 72 16 3 35 13 42 21
6 8 17 14 24 14 8 0 36 11 63 25 103 52 155 47 183 -17z"/>
<path d="M6854 8822 c-42 -81 -99 -188 -125 -239 -27 -50 -49 -100 -49 -110 0
-14 18 -28 61 -49 l62 -29 16 24 c9 13 43 74 76 136 72 135 79 143 132 167 40
18 42 18 86 -1 55 -24 87 -63 87 -107 0 -22 -26 -84 -75 -180 -42 -81 -73
-154 -70 -163 4 -14 97 -66 119 -66 11 0 41 53 127 222 58 115 62 126 62 191
0 53 -5 78 -21 104 -48 78 -126 118 -229 118 l-68 0 0 32 c0 28 -6 35 -57 64
l-57 32 -77 -146z"/>
<path d="M7550 8501 c-75 -24 -161 -102 -200 -180 -31 -63 -31 -162 1 -225 45
-90 124 -150 214 -162 40 -6 43 -8 34 -26 -9 -17 -4 -27 32 -64 24 -24 51 -44
61 -44 9 0 34 21 55 47 118 144 156 191 233 287 47 59 111 138 143 177 31 38
57 75 57 80 0 13 -91 99 -104 99 -12 0 -93 -89 -128 -142 -41 -62 -53 -65 -67
-17 -27 90 -137 168 -246 175 -33 2 -71 0 -85 -5z m155 -155 c18 -8 48 -34 65
-58 27 -36 31 -49 27 -86 -7 -63 -48 -118 -112 -149 l-55 -27 -55 27 c-70 34
-90 65 -90 136 0 47 5 63 29 94 52 69 122 91 191 63z"/>
<path d="M3202 8118 c-35 -17 -65 -73 -57 -108 9 -42 58 -80 104 -80 85 0 124
108 62 171 -31 31 -68 37 -109 17z"/>
<path d="M2557 8039 c-26 -15 -49 -68 -56 -128 l-6 -53 -25 20 -24 19 -43 -46
c-23 -25 -42 -52 -43 -59 0 -15 59 -71 205 -193 55 -46 116 -98 135 -116 19
-17 45 -38 59 -45 22 -12 26 -10 67 36 24 26 44 53 44 60 0 6 -54 60 -120 119
-135 121 -153 152 -130 223 7 22 22 49 33 61 23 26 19 34 -42 82 -28 22 -41
27 -54 20z"/>
<path d="M8355 7794 c-110 -74 -208 -141 -218 -149 -9 -8 -20 -15 -22 -15 -15
0 -155 -104 -155 -115 0 -7 8 -23 19 -36 10 -13 54 -78 98 -144 101 -151 166
-218 250 -257 60 -28 70 -30 156 -26 111 6 172 33 249 110 116 117 135 278 51
441 -24 48 -214 327 -222 326 -3 0 -96 -61 -206 -135z m230 -131 c19 -27 48
-74 66 -106 28 -54 31 -65 27 -132 -3 -64 -7 -78 -34 -112 -92 -114 -237 -139
-333 -56 -44 37 -153 191 -146 204 11 17 362 249 377 249 4 0 23 -21 43 -47z"/>
<path d="M2215 7543 c-44 -22 -102 -81 -132 -133 -24 -41 -27 -54 -27 -152 0
-104 1 -109 31 -150 98 -137 249 -174 388 -95 104 59 195 223 180 326 -6 42
-7 43 -38 38 -65 -11 -87 -25 -87 -54 0 -55 -33 -124 -79 -164 -36 -32 -51
-39 -87 -39 -23 0 -45 4 -48 8 -5 8 60 123 169 297 48 77 48 78 -20 114 -51
27 -202 29 -250 4z m150 -123 c3 -5 -2 -22 -12 -37 -11 -16 -24 -37 -30 -48
-54 -93 -95 -155 -104 -155 -11 0 -47 56 -55 88 -8 30 27 103 66 136 25 20 42
26 80 26 27 0 52 -4 55 -10z"/>
<path d="M8665 7013 c-11 -3 -24 -9 -29 -14 -6 -5 -17 -9 -27 -9 -9 0 -37 -16
-64 -36 -64 -49 -105 -135 -105 -219 0 -121 75 -265 162 -311 25 -13 28 -12
46 14 37 53 37 71 -1 111 -85 87 -101 191 -40 252 l29 30 17 -38 c9 -21 32
-78 52 -128 99 -243 86 -220 125 -218 39 2 101 43 143 95 62 77 67 210 12 317
-59 116 -199 183 -320 154z m132 -144 c54 -20 113 -98 113 -150 0 -30 -40 -98
-62 -105 -22 -7 -38 2 -38 22 0 8 -14 47 -31 87 -45 105 -54 138 -37 148 17
11 21 11 55 -2z"/>
<path d="M1918 6955 c-116 -61 -186 -223 -143 -329 7 -16 5 -18 -14 -13 -28 7
-48 -15 -72 -78 -17 -45 -17 -45 4 -58 12 -6 42 -19 67 -28 25 -9 88 -32 140
-52 52 -19 147 -54 210 -77 63 -23 148 -55 189 -71 40 -16 79 -29 86 -29 7 0
25 30 39 68 24 62 25 68 9 80 -9 6 -23 12 -30 12 -7 0 -27 6 -45 14 -18 8 -58
25 -89 37 l-57 22 52 51 c48 47 54 58 69 126 12 53 14 85 8 110 -5 19 -12 48
-15 63 -11 46 -84 117 -153 149 -84 38 -185 39 -255 3z m205 -158 c54 -33 77
-72 77 -131 0 -64 -28 -108 -87 -137 -44 -21 -47 -22 -99 -5 -98 31 -143 92
-129 177 5 29 19 53 46 80 36 36 43 39 97 39 42 0 67 -6 95 -23z"/>
<path d="M8975 6378 c-83 -56 -197 -133 -254 -171 -97 -64 -103 -70 -96 -95 3
-15 10 -50 14 -79 4 -29 9 -54 11 -56 13 -10 95 -28 151 -33 35 -4 69 -11 75
-15 6 -5 37 -13 70 -18 32 -5 88 -17 124 -25 36 -8 82 -15 102 -16 20 0 40 -4
43 -10 3 -5 13 -10 21 -10 13 0 14 8 9 43 -14 88 -23 106 -63 113 -20 3 -62
13 -92 20 -30 8 -66 14 -80 15 -14 0 -65 10 -114 23 l-89 22 164 109 c90 59
167 113 172 119 8 11 -1 118 -12 149 -5 14 -30 1 -156 -85z"/>
<path d="M1719 6252 c-91 -58 -142 -145 -156 -268 -13 -105 68 -242 171 -290
71 -33 171 -33 241 0 143 66 217 271 152 418 -55 123 -128 168 -273 168 -82 0
-94 -3 -135 -28z m186 -133 c120 -33 153 -172 61 -259 -21 -19 -40 -25 -89
-28 -87 -5 -143 26 -169 93 -17 45 -18 51 -3 95 30 91 101 126 200 99z"/>
<path d="M8877 5756 c-113 -41 -187 -164 -187 -309 0 -85 41 -196 80 -217 17
-9 26 -5 59 27 l40 38 -29 60 c-35 71 -37 107 -11 166 23 50 52 78 84 82 l22
2 3 -212 c3 -246 -3 -235 109 -207 81 19 118 40 158 89 63 77 83 201 49 306
-20 61 -94 141 -156 169 -51 23 -163 26 -221 6z m234 -185 c37 -37 39 -42 39
-101 0 -61 -2 -65 -40 -102 -23 -21 -50 -38 -60 -38 -19 0 -20 8 -20 113 0 61
-4 119 -10 127 -11 18 6 40 32 40 11 0 38 -17 59 -39z"/>
<path d="M1328 5564 c-5 -4 -8 -40 -8 -79 l0 -72 242 -6 c322 -9 516 -9 522 1
9 15 17 127 9 138 -9 13 -753 31 -765 18z"/>
<path d="M1775 5294 c-90 -21 -170 -80 -203 -152 -22 -48 -24 -64 -20 -151 3
-90 6 -101 37 -149 79 -124 200 -168 339 -125 68 22 140 88 171 157 27 63 29
210 3 271 -54 125 -88 143 -143 74 -18 -23 -28 -44 -23 -47 23 -16 52 -70 58
-109 11 -73 -2 -119 -46 -163 -22 -22 -44 -38 -48 -35 -4 3 -11 39 -15 81 -4
41 -15 137 -24 212 -17 133 -18 137 -42 139 -13 0 -33 -1 -44 -3z m0 -176 c5
-23 25 -218 25 -244 0 -9 -11 -14 -33 -14 -39 0 -64 23 -96 88 -18 36 -20 48
-11 80 12 44 30 69 67 94 36 23 42 23 48 -4z"/>
<path d="M8686 5088 c-3 -7 -7 -43 -10 -80 -6 -61 -5 -68 11 -69 122 -6 256
-19 288 -27 52 -13 333 -45 409 -46 l60 -1 11 73 c8 53 8 75 1 77 -6 2 -63 8
-126 14 -121 11 -223 22 -405 46 -192 25 -235 27 -239 13z"/>
<path d="M8783 4799 c-107 -34 -182 -128 -205 -261 -26 -147 56 -284 197 -332
168 -58 342 55 375 243 30 171 -45 304 -198 351 -78 24 -90 24 -169 -1z m139
-158 c88 -38 125 -115 93 -197 -22 -58 -73 -94 -133 -94 -57 0 -132 39 -156
81 -41 70 -11 170 62 209 47 24 79 25 134 1z"/>
<path d="M1604 4574 c5 -10 13 -37 19 -59 5 -22 13 -44 17 -48 9 -11 104 -25
273 -41 76 -7 140 -16 143 -18 2 -3 -10 -18 -28 -32 -42 -34 -215 -172 -262
-209 -35 -27 -35 -27 -20 -62 7 -19 14 -43 14 -54 0 -10 8 -28 18 -39 17 -21
19 -19 197 129 99 83 203 168 231 190 52 40 59 60 34 94 -4 6 -11 29 -15 52
-6 41 -9 43 -58 58 -28 8 -69 15 -91 15 -23 0 -88 7 -146 15 -58 8 -156 18
-219 22 -110 6 -114 6 -107 -13z"/>
<path d="M8279 4249 c-21 -44 -29 -73 -23 -79 5 -5 54 -30 109 -54 90 -41 126
-66 95 -66 -6 0 -33 -22 -59 -48 -59 -59 -97 -158 -87 -225 17 -104 74 -178
172 -227 124 -61 247 -40 334 57 58 64 85 136 77 209 -5 51 -5 53 14 44 27
-15 35 -8 68 60 l29 59 -23 15 c-14 9 -27 16 -29 16 -3 0 -90 41 -193 91 -104
51 -247 120 -319 154 l-131 63 -34 -69z m415 -291 c106 -51 116 -189 18 -262
-36 -28 -119 -24 -168 7 -56 35 -75 60 -81 105 -7 56 12 107 55 142 46 38 109
41 176 8z"/>
<path d="M2256 4078 c-8 -13 -18 -36 -22 -51 -6 -25 0 -35 44 -78 48 -47 82
-114 82 -161 0 -22 -35 -94 -50 -103 -5 -3 -37 47 -70 112 -33 65 -64 125 -69
133 -5 8 -20 37 -33 64 -12 26 -29 50 -36 53 -23 10 -59 -7 -107 -49 -58 -51
-95 -128 -95 -197 0 -51 24 -136 46 -162 8 -8 14 -20 14 -25 0 -20 77 -84 130
-108 64 -30 148 -34 194 -11 15 8 35 15 43 15 24 0 123 101 143 148 14 30 20
66 20 111 -1 117 -82 266 -170 311 -48 25 -46 25 -64 -2z m-102 -311 c31 -62
56 -118 56 -124 0 -38 -96 -17 -138 31 -45 52 -57 96 -37 142 18 43 44 76 55
69 4 -3 33 -55 64 -118z"/>
<path d="M8181 3580 c-23 -28 -41 -56 -39 -63 2 -8 50 -54 108 -104 149 -127
163 -145 157 -206 -6 -69 -44 -107 -107 -107 -43 0 -54 6 -136 72 -49 39 -111
92 -139 116 l-50 44 -53 -58 -53 -59 53 -48 c29 -27 84 -73 121 -104 78 -63
107 -104 107 -151 0 -94 -97 -153 -172 -104 -32 20 -154 120 -217 176 l-44 40
-44 -48 c-24 -26 -43 -58 -43 -69 0 -23 141 -149 260 -234 105 -74 203 -69
287 16 54 54 82 115 86 184 l2 51 56 11 c94 19 171 93 184 178 11 68 16 80 28
68 6 -6 19 -11 28 -11 21 0 99 88 93 105 -3 6 -53 52 -111 101 -58 49 -149
126 -202 172 -53 45 -101 82 -107 82 -6 0 -30 -23 -53 -50z"/>
<path d="M2407 3466 c-92 -34 -186 -125 -228 -222 -18 -39 -21 -62 -17 -138 3
-83 7 -98 42 -161 21 -39 50 -83 65 -100 15 -16 46 -55 69 -85 22 -30 63 -79
90 -109 l49 -54 34 24 c19 13 61 47 94 74 33 28 64 53 70 57 13 9 145 117 165
135 8 7 40 32 70 55 70 53 130 109 130 119 0 5 -24 37 -53 71 -29 35 -75 92
-104 128 -70 89 -140 153 -204 186 -45 23 -69 28 -144 31 -60 2 -103 -1 -128
-11z m212 -152 c34 -7 114 -78 173 -154 52 -67 52 -67 14 -92 -19 -13 -89 -68
-156 -123 -182 -148 -168 -139 -187 -124 -8 8 -42 48 -74 91 -72 94 -89 149
-70 232 10 45 21 63 67 108 30 29 65 56 77 60 30 8 117 9 156 2z"/>
<path d="M7403 2771 c-24 -9 -48 -22 -55 -29 -7 -7 -17 -12 -24 -12 -18 0
-113 -106 -129 -145 -22 -51 -19 -74 10 -80 84 -17 76 -20 118 44 40 61 88 92
153 98 49 4 63 2 83 -14 l24 -20 -79 -58 c-43 -32 -101 -75 -129 -95 -27 -20
-67 -49 -87 -64 -22 -15 -38 -36 -38 -46 0 -31 65 -95 125 -124 138 -65 316 2
393 148 35 68 38 188 5 251 -29 56 -97 123 -146 146 -53 24 -164 24 -224 0z
m257 -299 c0 -52 -32 -102 -80 -127 -41 -21 -112 -19 -141 4 l-24 19 20 22
c11 12 43 37 70 56 28 18 68 46 90 62 49 36 65 27 65 -36z"/>
<path d="M3255 2714 c-50 -25 -123 -104 -150 -161 -57 -121 -16 -270 93 -340
63 -41 94 -53 143 -53 45 0 45 -1 21 -38 -10 -15 -22 -34 -27 -43 -6 -9 -29
-44 -52 -77 -24 -34 -43 -63 -43 -66 0 -11 121 -87 130 -81 5 3 104 148 220
321 l210 315 -31 29 c-18 16 -45 34 -61 41 -24 10 -32 9 -47 -5 -19 -17 -20
-16 -39 26 -21 49 -88 113 -138 134 -46 19 -190 18 -229 -2z m206 -137 c50
-26 89 -85 89 -132 -1 -48 -49 -126 -95 -152 -47 -26 -79 -29 -128 -8 -128 53
-118 229 17 294 53 26 64 26 117 -2z"/>
<path d="M6975 2493 c-27 -14 -53 -30 -57 -36 -4 -6 2 -27 12 -47 10 -19 29
-57 41 -85 12 -27 35 -79 50 -113 34 -76 35 -91 9 -141 -37 -74 -129 -104
-183 -60 -24 18 -45 57 -143 266 l-34 73 -58 -26 c-31 -14 -63 -28 -69 -31
-16 -6 -16 -17 -3 -41 5 -9 28 -57 51 -107 81 -177 92 -199 128 -238 41 -46
101 -76 148 -77 77 0 183 60 230 131 25 38 26 39 40 19 8 -11 20 -20 27 -20
13 0 126 49 126 54 0 4 -177 384 -208 446 -15 30 -34 56 -42 57 -8 0 -37 -10
-65 -24z"/>
<path d="M3873 2390 l-23 -9 20 -51 c11 -28 20 -53 20 -56 0 -4 16 -3 36 0
110 21 234 -63 234 -160 0 -38 9 -40 -299 92 -57 25 -104 44 -105 42 0 -2 -10
-21 -21 -42 -29 -56 -28 -165 2 -228 24 -49 81 -111 124 -134 78 -40 186 -57
227 -35 9 6 31 13 47 16 44 9 136 108 158 170 51 147 -10 282 -165 365 -55 30
-74 34 -148 37 -47 2 -95 -1 -107 -7z m60 -311 c29 -12 66 -27 82 -35 17 -7
47 -20 68 -29 34 -13 37 -17 27 -35 -11 -21 -79 -60 -105 -60 -9 0 -38 9 -64
21 -54 23 -91 75 -91 128 0 38 12 39 83 10z"/>
<path d="M6175 2197 c-83 -39 -92 -68 -40 -117 25 -23 26 -23 60 -7 47 22 59
21 88 -5 16 -15 31 -51 46 -108 12 -47 29 -102 36 -122 7 -21 10 -40 7 -42 -4
-2 -33 -9 -64 -16 -31 -7 -59 -19 -62 -26 -8 -21 14 -83 33 -94 13 -6 35 -5
70 4 58 15 62 12 75 -50 11 -51 34 -66 82 -53 21 6 43 15 49 20 5 5 17 9 27 9
10 0 18 1 18 3 0 1 -7 20 -15 42 -24 67 -20 89 17 100 40 12 45 31 21 82 -18
37 -23 39 -72 32 -27 -4 -23 -12 -61 126 -54 198 -86 237 -199 243 -53 2 -76
-2 -116 -21z"/>
<path d="M4495 1963 c-59 -120 -136 -275 -170 -345 l-64 -127 54 -15 c101 -30
89 -41 203 197 57 116 108 223 115 236 17 34 37 38 37 7 0 -13 4 -27 9 -30 4
-3 11 -36 14 -73 6 -78 33 -227 53 -295 8 -26 14 -58 14 -73 0 -30 20 -40 101
-50 l54 -6 118 240 c66 133 123 241 128 241 5 0 9 -10 9 -22 0 -12 6 -44 14
-72 8 -28 19 -87 25 -131 17 -124 38 -237 51 -272 13 -36 19 -39 108 -48 71
-8 68 -12 47 84 -21 97 -34 165 -49 266 -8 50 -19 110 -25 135 -6 25 -18 88
-27 140 -25 151 -15 136 -97 143 -40 3 -79 8 -88 11 -12 5 -41 -45 -132 -230
-65 -130 -121 -234 -124 -230 -6 5 -17 64 -47 246 -8 47 -19 105 -25 130 -5
25 -13 66 -16 91 l-6 46 -72 6 c-40 2 -79 8 -88 11 -14 6 -37 -33 -124 -211z"/>
<path d="M5626 2089 c-46 -55 -32 -129 30 -155 92 -39 177 56 125 140 -25 39
-38 46 -91 46 -30 0 -44 -6 -64 -31z"/>
</g>
</svg>
